<?xml version="1.0" encoding="utf-8"?>
<!-- Generator: Adobe Illustrator 21.0.2, SVG Export Plug-In . SVG Version: 6.00 Build 0)  -->
<svg version="1.1" id="Layer_1" xmlns="http://www.w3.org/2000/svg" xmlns:xlink="http://www.w3.org/1999/xlink" x="0px" y="0px"
	 viewBox="0 0 93.2 11.1" style="enable-background:new 0 0 93.2 11.1;" xml:space="preserve">
<title>logo</title>
<g id="Layer_2">
	<g id="Layer_1-2">
		<path d="M2.7,4.7l3.4-4.4h3.4l-4.2,5l4.6,5.6H6.3L2.7,6.3v4.6H0V0.3h2.7V4.7z"/>
		<path d="M13.8,0.3v10.6h-2.7V0.3H13.8z"/>
		<path d="M18.8,4.7l3.3-4.4h3.4l-4.2,5l4.6,5.6h-3.5l-3.6-4.6v4.6H16V0.3h2.7L18.8,4.7z"/>
		<path d="M29.9,0.3v10.6h-2.8V0.3H29.9z"/>
		<path d="M40.6,8.5H45v2.3h-9l5-8.2h-4.2V0.3h8.7L40.6,8.5z"/>
		<path d="M49.6,4.4h4V0.3h2.7v10.6h-2.8V6.5h-4v4.4h-2.7V0.3h2.7L49.6,4.4z"/>
		<path d="M65,9h-4l-0.6,1.8h-2.9l4-10.6h3l4,10.6h-2.9L65,9z M64.3,6.9L63,3.4l-1.2,3.5L64.3,6.9z"/>
		<path d="M69.7,10.9V0.3h2.7l5.1,6.4V0.3h2.7v10.6h-2.7l-5.1-6.5v6.5H69.7z"/>
		<path d="M87.8,4.9h5.4c0,0.5,0,1-0.1,1.5c0,0.4-0.1,0.9-0.3,1.3c-0.2,0.5-0.5,1-0.8,1.5c-0.3,0.4-0.7,0.8-1.2,1.1
			c-0.5,0.3-1,0.5-1.5,0.6c-0.6,0.2-1.1,0.2-1.7,0.2c-0.8,0-1.5-0.1-2.2-0.4c-0.7-0.2-1.3-0.6-1.7-1.1c-0.5-0.5-0.9-1.1-1.1-1.8
			c-0.3-0.7-0.4-1.5-0.4-2.3c0-0.8,0.1-1.5,0.4-2.3c0.2-0.7,0.6-1.3,1.1-1.8c0.5-0.5,1.1-0.9,1.8-1.1C86.2,0.1,87,0,87.8,0
			c1,0,2,0.2,2.9,0.7c0.9,0.5,1.6,1.3,2,2.2L90.1,4c-0.2-0.5-0.5-0.9-0.9-1.2c-0.4-0.3-0.9-0.4-1.3-0.4c-0.4,0-0.8,0.1-1.1,0.2
			c-0.3,0.2-0.6,0.4-0.9,0.7c-0.2,0.3-0.4,0.6-0.6,1c-0.1,0.4-0.2,0.9-0.2,1.3c0,0.4,0.1,0.8,0.2,1.2c0.1,0.4,0.3,0.7,0.5,1
			c0.2,0.3,0.5,0.5,0.9,0.6c0.4,0.2,0.8,0.2,1.2,0.2c0.3,0,0.5,0,0.8-0.1c0.2-0.1,0.5-0.2,0.7-0.3c0.2-0.1,0.4-0.3,0.5-0.5
			C89.9,7.6,90,7.3,90.1,7h-2.3V4.9z"/>
	</g>
</g>
</svg>
